<?xml version="1.0" encoding="UTF-8" standalone="no"?><!DOCTYPE svg PUBLIC "-//W3C//DTD SVG 1.1//EN" "http://www.w3.org/Graphics/SVG/1.1/DTD/svg11.dtd"><svg width="100%" height="100%" viewBox="0 0 3400 3400" version="1.1" xmlns="http://www.w3.org/2000/svg" xmlns:xlink="http://www.w3.org/1999/xlink" xml:space="preserve" xmlns:serif="http://www.serif.com/" style="fill-rule:evenodd;clip-rule:evenodd;stroke-linejoin:round;stroke-miterlimit:2;"><g id="gray"><rect x="0" y="0" width="100" height="400" style="fill:#787878;"/><rect x="0" y="500" width="100" height="400" style="fill:#787878;"/><rect x="0" y="1000" width="100" height="400" style="fill:#787878;"/><rect x="0" y="1500" width="100" height="400" style="fill:#787878;"/><rect x="0" y="2000" width="100" height="200" style="fill:#787878;"/><rect x="0" y="3000" width="100" height="400" style="fill:#787878;"/><rect x="0" y="2700" width="100" height="200" style="fill:#787878;"/></g><g id="orange"><rect x="100" y="0" width="3300" height="400" style="fill:#f8a809;"/><rect x="100" y="500" width="3300" height="200" style="fill:#f8a809;"/><rect x="2000" y="2000" width="1400" height="400" style="fill:#f8a809;"/><rect x="100" y="1200" width="3300" height="200" style="fill:#f8a809;"/><rect x="100" y="1500" width="3300" height="400" style="fill:#f8a809;"/><rect x="100" y="2000" width="3300" height="200" style="fill:#f8a809;"/><rect x="100" y="2700" width="3300" height="200" style="fill:#f8a809;"/><rect x="100" y="3000" width="3300" height="400" style="fill:#f8a809;"/><rect x="100" y="1000" width="1400" height="400" style="fill:#f8a809;"/><rect x="100" y="500" width="1400" height="400" style="fill:#f8a809;"/><rect x="2000" y="2500" width="1400" height="400" style="fill:#f8a809;"/></g></svg>